<?xml version="1.0" encoding="UTF-8" standalone="no"?>
<!DOCTYPE svg PUBLIC "-//W3C//DTD SVG 1.1//EN"
 "http://www.w3.org/Graphics/SVG/1.1/DTD/svg11.dtd">
<!-- Generated by graphviz version 2.40.1 (20161225.0304)
 -->
<!-- Title: G Pages: 1 -->
<svg width="651pt" height="555pt"
 viewBox="0.00 0.00 651.00 555.00" xmlns="http://www.w3.org/2000/svg" xmlns:xlink="http://www.w3.org/1999/xlink">
<g id="graph0" class="graph" transform="scale(1 1) rotate(0) translate(4 551)">
<title>G</title>
<polygon fill="#ffffff" stroke="transparent" points="-4,4 -4,-551 647,-551 647,4 -4,4"/>
<g id="clust1" class="cluster">
<title>cluster_split</title>
<polygon fill="none" stroke="#000000" points="223,-213 223,-539 421,-539 421,-213 223,-213"/>
<text text-anchor="middle" x="322" y="-523.8" font-family="Times,serif" font-size="14.00" fill="#000000">split.dag</text>
</g>
<g id="clust2" class="cluster">
<title>cluster_analysis</title>
<polygon fill="none" stroke="#000000" points="8,-8 8,-194 635,-194 635,-8 8,-8"/>
<text text-anchor="middle" x="321.5" y="-178.8" font-family="Times,serif" font-size="14.00" fill="#000000">analysis.dag</text>
</g>
<!-- split_words -->
<g id="node1" class="node">
<title>split_words</title>
<ellipse fill="#d3d3d3" stroke="#000000" cx="322" cy="-490" rx="51.9908" ry="18"/>
<text text-anchor="middle" x="322" y="-486.3" font-family="Times,serif" font-size="14.00" fill="#000000">split_words</text>
</g>
<!-- make_analysis_dag -->
<g id="node2" class="node">
<title>make_analysis_dag</title>
<ellipse fill="#d3d3d3" stroke="#000000" cx="322" cy="-365" rx="90.9839" ry="18"/>
<text text-anchor="middle" x="322" y="-361.3" font-family="Times,serif" font-size="14.00" fill="#000000">make_analysis_dag.py</text>
</g>
<!-- split_words&#45;&gt;make_analysis_dag -->
<g id="edge1" class="edge">
<title>split_words&#45;&gt;make_analysis_dag</title>
<path fill="none" stroke="#000000" d="M322,-471.8239C322,-451.2723 322,-417.5472 322,-393.4893"/>
<polygon fill="#000000" stroke="#000000" points="325.5001,-393.198 322,-383.198 318.5001,-393.198 325.5001,-393.198"/>
<text text-anchor="middle" x="342.5" y="-423.8" font-family="Times,serif" font-size="14.00" fill="#000000"> &#160;POST</text>
</g>
<!-- analysis_dag -->
<g id="node3" class="node">
<title>analysis_dag</title>
<polygon fill="#d3d3d3" stroke="#000000" points="280.5,-221.5 280.5,-257.5 363.5,-257.5 363.5,-221.5 280.5,-221.5"/>
<text text-anchor="middle" x="322" y="-235.8" font-family="Times,serif" font-size="14.00" fill="#000000">analysis.dag</text>
</g>
<!-- make_analysis_dag&#45;&gt;analysis_dag -->
<g id="edge2" class="edge">
<title>make_analysis_dag&#45;&gt;analysis_dag</title>
<path fill="none" stroke="#000000" d="M322,-346.7512C322,-326.0245 322,-291.9521 322,-267.7775"/>
<polygon fill="#000000" stroke="#000000" points="325.5001,-267.7708 322,-257.7708 318.5001,-267.7708 325.5001,-267.7708"/>
<text text-anchor="middle" x="354" y="-298.8" font-family="Times,serif" font-size="14.00" fill="#000000"> &#160;SUBDAG</text>
</g>
<!-- count_words__1 -->
<g id="node4" class="node">
<title>count_words__1</title>
<ellipse fill="#d3d3d3" stroke="#000000" cx="86" cy="-145" rx="69.5877" ry="18"/>
<text text-anchor="middle" x="86" y="-141.3" font-family="Times,serif" font-size="14.00" fill="#000000">count_words__1</text>
</g>
<!-- analysis_dag&#45;&gt;count_words__1 -->
<!-- count_words__2 -->
<g id="node5" class="node">
<title>count_words__2</title>
<ellipse fill="#d3d3d3" stroke="#000000" cx="243" cy="-145" rx="69.5877" ry="18"/>
<text text-anchor="middle" x="243" y="-141.3" font-family="Times,serif" font-size="14.00" fill="#000000">count_words__2</text>
</g>
<!-- analysis_dag&#45;&gt;count_words__2 -->
<!-- count_words__3 -->
<g id="node6" class="node">
<title>count_words__3</title>
<ellipse fill="#d3d3d3" stroke="#000000" cx="400" cy="-145" rx="69.5877" ry="18"/>
<text text-anchor="middle" x="400" y="-141.3" font-family="Times,serif" font-size="14.00" fill="#000000">count_words__3</text>
</g>
<!-- analysis_dag&#45;&gt;count_words__3 -->
<!-- count_words__4 -->
<g id="node7" class="node">
<title>count_words__4</title>
<ellipse fill="#d3d3d3" stroke="#000000" cx="557" cy="-145" rx="69.5877" ry="18"/>
<text text-anchor="middle" x="557" y="-141.3" font-family="Times,serif" font-size="14.00" fill="#000000">count_words__4</text>
</g>
<!-- analysis_dag&#45;&gt;count_words__4 -->
<!-- combine_counts -->
<g id="node8" class="node">
<title>combine_counts</title>
<ellipse fill="#d3d3d3" stroke="#000000" cx="321" cy="-34" rx="68.7879" ry="18"/>
<text text-anchor="middle" x="321" y="-30.3" font-family="Times,serif" font-size="14.00" fill="#000000">combine_counts</text>
</g>
<!-- count_words__1&#45;&gt;combine_counts -->
<g id="edge3" class="edge">
<title>count_words__1&#45;&gt;combine_counts</title>
<path fill="none" stroke="#000000" d="M119.6698,-129.0964C161.3766,-109.3966 232.486,-75.8088 278.0722,-54.2765"/>
<polygon fill="#000000" stroke="#000000" points="279.8455,-57.3098 287.3927,-49.8741 276.8558,-50.9804 279.8455,-57.3098"/>
</g>
<!-- count_words__2&#45;&gt;combine_counts -->
<g id="edge4" class="edge">
<title>count_words__2&#45;&gt;combine_counts</title>
<path fill="none" stroke="#000000" d="M255.532,-127.1659C268.2682,-109.0413 288.135,-80.7695 302.6449,-60.1207"/>
<polygon fill="#000000" stroke="#000000" points="305.6132,-61.9841 308.4991,-51.7898 299.8859,-57.9594 305.6132,-61.9841"/>
</g>
<!-- count_words__3&#45;&gt;combine_counts -->
<g id="edge5" class="edge">
<title>count_words__3&#45;&gt;combine_counts</title>
<path fill="none" stroke="#000000" d="M387.3073,-127.1659C374.4078,-109.0413 354.2864,-80.7695 339.5904,-60.1207"/>
<polygon fill="#000000" stroke="#000000" points="342.3113,-57.9076 333.6612,-51.7898 336.6082,-61.9666 342.3113,-57.9076"/>
</g>
<!-- count_words__4&#45;&gt;combine_counts -->
<g id="edge6" class="edge">
<title>count_words__4&#45;&gt;combine_counts</title>
<path fill="none" stroke="#000000" d="M523.4376,-129.2143C481.5304,-109.5037 409.7849,-75.759 363.9211,-54.1875"/>
<polygon fill="#000000" stroke="#000000" points="365.3675,-51 354.8287,-49.911 362.3881,-57.3343 365.3675,-51"/>
</g>
</g>
</svg>
